<?xml version="1.0" encoding="UTF-8" standalone="no"?>
<!DOCTYPE svg PUBLIC "-//W3C//DTD SVG 1.1//EN"
 "http://www.w3.org/Graphics/SVG/1.1/DTD/svg11.dtd">
<!-- Generated by graphviz version 2.40.1 (20161225.0304)
 -->
<!-- Title: dependencies Pages: 1 -->
<svg width="4839pt" height="284pt"
 viewBox="0.00 0.00 4839.00 284.00" xmlns="http://www.w3.org/2000/svg" xmlns:xlink="http://www.w3.org/1999/xlink">
<g id="graph0" class="graph" transform="scale(1 1) rotate(0) translate(4 280)">
<title>dependencies</title>
<polygon fill="#ffffff" stroke="transparent" points="-4,4 -4,-280 4835,-280 4835,4 -4,4"/>
<text text-anchor="start" x="2394.5091" y="-42.4" font-family="sans-serif" font-weight="bold" font-size="14.00" fill="#000000">Legend</text>
<polygon fill="#ffffb3" stroke="transparent" points="2181.5,-10 2181.5,-30 2201.5,-30 2201.5,-10 2181.5,-10"/>
<text text-anchor="start" x="2205.129" y="-15.4" font-family="sans-serif" font-size="14.00" fill="#000000"> &#160;Declarations</text>
<polygon fill="#8dd3c7" stroke="transparent" points="2294.5,-10 2294.5,-30 2314.5,-30 2314.5,-10 2294.5,-10"/>
<text text-anchor="start" x="2318.2251" y="-15.4" font-family="sans-serif" font-size="14.00" fill="#000000"> &#160;Module</text>
<polygon fill="#80b1d3" stroke="transparent" points="2380.5,-10 2380.5,-30 2400.5,-30 2400.5,-10 2380.5,-10"/>
<text text-anchor="start" x="2404.2812" y="-15.4" font-family="sans-serif" font-size="14.00" fill="#000000"> &#160;Bootstrap</text>
<polygon fill="#fdb462" stroke="transparent" points="2477.5,-10 2477.5,-30 2497.5,-30 2497.5,-10 2477.5,-10"/>
<text text-anchor="start" x="2501.1732" y="-15.4" font-family="sans-serif" font-size="14.00" fill="#000000"> &#160;Providers</text>
<polygon fill="#fb8072" stroke="transparent" points="2573.5,-10 2573.5,-30 2593.5,-30 2593.5,-10 2573.5,-10"/>
<text text-anchor="start" x="2597.2258" y="-15.4" font-family="sans-serif" font-size="14.00" fill="#000000"> &#160;Exports</text>
<g id="clust1" class="cluster">
<title>cluster_AppModule</title>
<polygon fill="none" stroke="#000000" stroke-dasharray="1,5" points="8,-70 8,-268 4823,-268 4823,-70 8,-70"/>
</g>
<g id="clust2" class="cluster">
<title>cluster_AppModule_declarations</title>
<polygon fill="none" stroke="#000000" points="340,-78 340,-130 4815,-130 4815,-78 340,-78"/>
</g>
<g id="clust29" class="cluster">
<title>cluster_AppModule_imports</title>
<polygon fill="none" stroke="#000000" points="188,-78 188,-130 332,-130 332,-78 188,-78"/>
</g>
<g id="clust31" class="cluster">
<title>cluster_AppModule_bootstrap</title>
<polygon fill="none" stroke="#000000" points="2375,-208 2375,-260 2499,-260 2499,-208 2375,-208"/>
</g>
<g id="clust32" class="cluster">
<title>cluster_AppModule_providers</title>
<polygon fill="none" stroke="#000000" points="16,-78 16,-130 180,-130 180,-78 16,-78"/>
</g>
<!-- AdminAddAccountComponent -->
<g id="node1" class="node">
<title>AdminAddAccountComponent</title>
<polygon fill="#ffffb3" stroke="#000000" points="4806.7534,-122 4615.2466,-122 4615.2466,-86 4806.7534,-86 4806.7534,-122"/>
<text text-anchor="middle" x="4711" y="-99.8" font-family="Times,serif" font-size="14.00" fill="#000000">AdminAddAccountComponent</text>
</g>
<!-- AppModule -->
<g id="node27" class="node">
<title>AppModule</title>
<polygon fill="#8dd3c7" stroke="#000000" points="2478.6571,-187 2475.6571,-191 2454.6571,-191 2451.6571,-187 2395.3429,-187 2395.3429,-151 2478.6571,-151 2478.6571,-187"/>
<text text-anchor="middle" x="2437" y="-164.8" font-family="Times,serif" font-size="14.00" fill="#000000">AppModule</text>
</g>
<!-- AdminAddAccountComponent&#45;&gt;AppModule -->
<g id="edge1" class="edge">
<title>AdminAddAccountComponent&#45;&gt;AppModule</title>
<path fill="none" stroke="#000000" d="M4711,-122.3802C4711,-146.2785 4711,-185 4711,-185 4711,-185 2488.9028,-185 2488.9028,-185"/>
<polygon fill="#000000" stroke="#000000" points="2488.9029,-181.5001 2478.9028,-185 2488.9028,-188.5001 2488.9029,-181.5001"/>
</g>
<!-- AdminComponent -->
<g id="node2" class="node">
<title>AdminComponent</title>
<polygon fill="#ffffb3" stroke="#000000" points="4597.2204,-122 4476.7796,-122 4476.7796,-86 4597.2204,-86 4597.2204,-122"/>
<text text-anchor="middle" x="4537" y="-99.8" font-family="Times,serif" font-size="14.00" fill="#000000">AdminComponent</text>
</g>
<!-- AdminComponent&#45;&gt;AppModule -->
<g id="edge2" class="edge">
<title>AdminComponent&#45;&gt;AppModule</title>
<path fill="none" stroke="#000000" d="M4537,-122.0908C4537,-145.1328 4537,-182 4537,-182 4537,-182 2488.9483,-182 2488.9483,-182"/>
<polygon fill="#000000" stroke="#000000" points="2488.9483,-178.5001 2478.9483,-182 2488.9483,-185.5001 2488.9483,-178.5001"/>
</g>
<!-- AdminDeactivateAccountComponent -->
<g id="node3" class="node">
<title>AdminDeactivateAccountComponent</title>
<polygon fill="#ffffb3" stroke="#000000" points="4458.9985,-122 4231.0015,-122 4231.0015,-86 4458.9985,-86 4458.9985,-122"/>
<text text-anchor="middle" x="4345" y="-99.8" font-family="Times,serif" font-size="14.00" fill="#000000">AdminDeactivateAccountComponent</text>
</g>
<!-- AdminDeactivateAccountComponent&#45;&gt;AppModule -->
<g id="edge3" class="edge">
<title>AdminDeactivateAccountComponent&#45;&gt;AppModule</title>
<path fill="none" stroke="#000000" d="M4345,-122.0109C4345,-144.4852 4345,-180 4345,-180 4345,-180 2489.075,-180 2489.075,-180"/>
<polygon fill="#000000" stroke="#000000" points="2489.075,-176.5001 2479.075,-180 2489.0749,-183.5001 2489.075,-176.5001"/>
</g>
<!-- AdminDefaultComponent -->
<g id="node4" class="node">
<title>AdminDefaultComponent</title>
<polygon fill="#ffffb3" stroke="#000000" points="4213.1979,-122 4050.8021,-122 4050.8021,-86 4213.1979,-86 4213.1979,-122"/>
<text text-anchor="middle" x="4132" y="-99.8" font-family="Times,serif" font-size="14.00" fill="#000000">AdminDefaultComponent</text>
</g>
<!-- AdminDefaultComponent&#45;&gt;AppModule -->
<g id="edge4" class="edge">
<title>AdminDefaultComponent&#45;&gt;AppModule</title>
<path fill="none" stroke="#000000" d="M4132,-122.0449C4132,-143.6623 4132,-177 4132,-177 4132,-177 2488.8991,-177 2488.8991,-177"/>
<polygon fill="#000000" stroke="#000000" points="2488.8991,-173.5001 2478.8991,-177 2488.8991,-180.5001 2488.8991,-173.5001"/>
</g>
<!-- AppComponent -->
<g id="node5" class="node">
<title>AppComponent</title>
<polygon fill="#ffffb3" stroke="#000000" points="4032.9399,-122 3927.0601,-122 3927.0601,-86 4032.9399,-86 4032.9399,-122"/>
<text text-anchor="middle" x="3980" y="-99.8" font-family="Times,serif" font-size="14.00" fill="#000000">AppComponent</text>
</g>
<!-- AppComponent&#45;&gt;AppModule -->
<g id="edge5" class="edge">
<title>AppComponent&#45;&gt;AppModule</title>
<path fill="none" stroke="#000000" d="M3980,-122.2843C3980,-143.3211 3980,-175 3980,-175 3980,-175 2488.6708,-175 2488.6708,-175"/>
<polygon fill="#000000" stroke="#000000" points="2488.6708,-171.5001 2478.6708,-175 2488.6707,-178.5001 2488.6708,-171.5001"/>
</g>
<!-- AttemptComponent -->
<g id="node6" class="node">
<title>AttemptComponent</title>
<polygon fill="#ffffb3" stroke="#000000" points="3909.7162,-122 3782.2838,-122 3782.2838,-86 3909.7162,-86 3909.7162,-122"/>
<text text-anchor="middle" x="3846" y="-99.8" font-family="Times,serif" font-size="14.00" fill="#000000">AttemptComponent</text>
</g>
<!-- AttemptComponent&#45;&gt;AppModule -->
<g id="edge6" class="edge">
<title>AttemptComponent&#45;&gt;AppModule</title>
<path fill="none" stroke="#000000" d="M3846,-122.2228C3846,-142.3652 3846,-172 3846,-172 3846,-172 2488.7863,-172 2488.7863,-172"/>
<polygon fill="#000000" stroke="#000000" points="2488.7863,-168.5001 2478.7863,-172 2488.7863,-175.5001 2488.7863,-168.5001"/>
</g>
<!-- AttemptDialogComponent -->
<g id="node7" class="node">
<title>AttemptDialogComponent</title>
<polygon fill="#ffffb3" stroke="#000000" points="3764.8187,-122 3599.1813,-122 3599.1813,-86 3764.8187,-86 3764.8187,-122"/>
<text text-anchor="middle" x="3682" y="-99.8" font-family="Times,serif" font-size="14.00" fill="#000000">AttemptDialogComponent</text>
</g>
<!-- AttemptDialogComponent&#45;&gt;AppModule -->
<g id="edge7" class="edge">
<title>AttemptDialogComponent&#45;&gt;AppModule</title>
<path fill="none" stroke="#000000" d="M3682,-122.1061C3682,-141.3391 3682,-169 3682,-169 3682,-169 2488.7794,-169 2488.7794,-169"/>
<polygon fill="#000000" stroke="#000000" points="2488.7794,-165.5001 2478.7794,-169 2488.7793,-172.5001 2488.7794,-165.5001"/>
</g>
<!-- LibraryComponent -->
<g id="node8" class="node">
<title>LibraryComponent</title>
<polygon fill="#ffffb3" stroke="#000000" points="3581.8118,-122 3458.1882,-122 3458.1882,-86 3581.8118,-86 3581.8118,-122"/>
<text text-anchor="middle" x="3520" y="-99.8" font-family="Times,serif" font-size="14.00" fill="#000000">LibraryComponent</text>
</g>
<!-- LibraryComponent&#45;&gt;AppModule -->
<g id="edge8" class="edge">
<title>LibraryComponent&#45;&gt;AppModule</title>
<path fill="none" stroke="#000000" d="M3520,-122.2222C3520,-140.8285 3520,-167 3520,-167 3520,-167 2488.7913,-167 2488.7913,-167"/>
<polygon fill="#000000" stroke="#000000" points="2488.7913,-163.5001 2478.7913,-167 2488.7913,-170.5001 2488.7913,-163.5001"/>
</g>
<!-- LibraryDialogComponent -->
<g id="node9" class="node">
<title>LibraryDialogComponent</title>
<polygon fill="#ffffb3" stroke="#000000" points="3440.9143,-122 3279.0857,-122 3279.0857,-86 3440.9143,-86 3440.9143,-122"/>
<text text-anchor="middle" x="3360" y="-99.8" font-family="Times,serif" font-size="14.00" fill="#000000">LibraryDialogComponent</text>
</g>
<!-- LibraryDialogComponent&#45;&gt;AppModule -->
<g id="edge9" class="edge">
<title>LibraryDialogComponent&#45;&gt;AppModule</title>
<path fill="none" stroke="#000000" d="M3360,-122.002C3360,-139.6754 3360,-164 3360,-164 3360,-164 2488.7547,-164 2488.7547,-164"/>
<polygon fill="#000000" stroke="#000000" points="2488.7547,-160.5001 2478.7547,-164 2488.7546,-167.5001 2488.7547,-160.5001"/>
</g>
<!-- LibraryListComponent -->
<g id="node10" class="node">
<title>LibraryListComponent</title>
<polygon fill="#ffffb3" stroke="#000000" points="3261.5898,-122 3116.4102,-122 3116.4102,-86 3261.5898,-86 3261.5898,-122"/>
<text text-anchor="middle" x="3189" y="-99.8" font-family="Times,serif" font-size="14.00" fill="#000000">LibraryListComponent</text>
</g>
<!-- LibraryListComponent&#45;&gt;AppModule -->
<g id="edge10" class="edge">
<title>LibraryListComponent&#45;&gt;AppModule</title>
<path fill="none" stroke="#000000" d="M3189,-122.0336C3189,-139.0597 3189,-162 3189,-162 3189,-162 2488.7717,-162 2488.7717,-162"/>
<polygon fill="#000000" stroke="#000000" points="2488.7717,-158.5001 2478.7717,-162 2488.7716,-165.5001 2488.7717,-158.5001"/>
</g>
<!-- LoginComponent -->
<g id="node11" class="node">
<title>LoginComponent</title>
<polygon fill="#ffffb3" stroke="#000000" points="3098.2758,-122 2983.7242,-122 2983.7242,-86 3098.2758,-86 3098.2758,-122"/>
<text text-anchor="middle" x="3041" y="-99.8" font-family="Times,serif" font-size="14.00" fill="#000000">LoginComponent</text>
</g>
<!-- LoginComponent&#45;&gt;AppModule -->
<g id="edge11" class="edge">
<title>LoginComponent&#45;&gt;AppModule</title>
<path fill="none" stroke="#000000" d="M3041,-122.0091C3041,-138.0494 3041,-159 3041,-159 3041,-159 2488.9926,-159 2488.9926,-159"/>
<polygon fill="#000000" stroke="#000000" points="2488.9926,-155.5001 2478.9926,-159 2488.9925,-162.5001 2488.9926,-155.5001"/>
</g>
<!-- NavbarComponent -->
<g id="node12" class="node">
<title>NavbarComponent</title>
<polygon fill="#ffffb3" stroke="#000000" points="2965.0297,-122 2842.9703,-122 2842.9703,-86 2965.0297,-86 2965.0297,-122"/>
<text text-anchor="middle" x="2904" y="-99.8" font-family="Times,serif" font-size="14.00" fill="#000000">NavbarComponent</text>
</g>
<!-- NavbarComponent&#45;&gt;AppModule -->
<g id="edge12" class="edge">
<title>NavbarComponent&#45;&gt;AppModule</title>
<path fill="none" stroke="#000000" d="M2904,-122.2396C2904,-137.5706 2904,-157 2904,-157 2904,-157 2488.8541,-157 2488.8541,-157"/>
<polygon fill="#000000" stroke="#000000" points="2488.8542,-153.5001 2478.8541,-157 2488.8541,-160.5001 2488.8542,-153.5001"/>
</g>
<!-- NewLibraryDialogComponent -->
<g id="node13" class="node">
<title>NewLibraryDialogComponent</title>
<polygon fill="#ffffb3" stroke="#000000" points="2824.8417,-122 2637.1583,-122 2637.1583,-86 2824.8417,-86 2824.8417,-122"/>
<text text-anchor="middle" x="2731" y="-99.8" font-family="Times,serif" font-size="14.00" fill="#000000">NewLibraryDialogComponent</text>
</g>
<!-- NewLibraryDialogComponent&#45;&gt;AppModule -->
<g id="edge13" class="edge">
<title>NewLibraryDialogComponent&#45;&gt;AppModule</title>
<path fill="none" stroke="#000000" d="M2731,-122.0511C2731,-136.373 2731,-154 2731,-154 2731,-154 2488.8108,-154 2488.8108,-154"/>
<polygon fill="#000000" stroke="#000000" points="2488.8108,-150.5001 2478.8108,-154 2488.8108,-157.5001 2488.8108,-150.5001"/>
</g>
<!-- PendingLibraryListComponent -->
<g id="node14" class="node">
<title>PendingLibraryListComponent</title>
<polygon fill="#ffffb3" stroke="#000000" points="2619.4776,-122 2428.5224,-122 2428.5224,-86 2619.4776,-86 2619.4776,-122"/>
<text text-anchor="middle" x="2524" y="-99.8" font-family="Times,serif" font-size="14.00" fill="#000000">PendingLibraryListComponent</text>
</g>
<!-- PendingLibraryListComponent&#45;&gt;AppModule -->
<g id="edge14" class="edge">
<title>PendingLibraryListComponent&#45;&gt;AppModule</title>
<path fill="none" stroke="#000000" d="M2453.6697,-122.1061C2453.6697,-122.1061 2453.6697,-140.991 2453.6697,-140.991"/>
<polygon fill="#000000" stroke="#000000" points="2450.1698,-140.9909 2453.6697,-150.991 2457.1698,-140.991 2450.1698,-140.9909"/>
</g>
<!-- ProfileComponent -->
<g id="node15" class="node">
<title>ProfileComponent</title>
<polygon fill="#ffffb3" stroke="#000000" points="2410.9328,-122 2291.0672,-122 2291.0672,-86 2410.9328,-86 2410.9328,-122"/>
<text text-anchor="middle" x="2351" y="-99.8" font-family="Times,serif" font-size="14.00" fill="#000000">ProfileComponent</text>
</g>
<!-- ProfileComponent&#45;&gt;AppModule -->
<g id="edge15" class="edge">
<title>ProfileComponent&#45;&gt;AppModule</title>
<path fill="none" stroke="#000000" d="M2402.9439,-122.1061C2402.9439,-122.1061 2402.9439,-140.991 2402.9439,-140.991"/>
<polygon fill="#000000" stroke="#000000" points="2399.444,-140.9909 2402.9439,-150.991 2406.444,-140.991 2399.444,-140.9909"/>
</g>
<!-- ProfileHomepageComponent -->
<g id="node16" class="node">
<title>ProfileHomepageComponent</title>
<polygon fill="#ffffb3" stroke="#000000" points="2273.073,-122 2092.927,-122 2092.927,-86 2273.073,-86 2273.073,-122"/>
<text text-anchor="middle" x="2183" y="-99.8" font-family="Times,serif" font-size="14.00" fill="#000000">ProfileHomepageComponent</text>
</g>
<!-- ProfileHomepageComponent&#45;&gt;AppModule -->
<g id="edge16" class="edge">
<title>ProfileHomepageComponent&#45;&gt;AppModule</title>
<path fill="none" stroke="#000000" d="M2183,-122.0511C2183,-136.373 2183,-154 2183,-154 2183,-154 2385.3415,-154 2385.3415,-154"/>
<polygon fill="#000000" stroke="#000000" points="2385.3415,-157.5001 2395.3415,-154 2385.3415,-150.5001 2385.3415,-157.5001"/>
</g>
<!-- ProfileNavbarComponent -->
<g id="node17" class="node">
<title>ProfileNavbarComponent</title>
<polygon fill="#ffffb3" stroke="#000000" points="2075.1288,-122 1914.8712,-122 1914.8712,-86 2075.1288,-86 2075.1288,-122"/>
<text text-anchor="middle" x="1995" y="-99.8" font-family="Times,serif" font-size="14.00" fill="#000000">ProfileNavbarComponent</text>
</g>
<!-- ProfileNavbarComponent&#45;&gt;AppModule -->
<g id="edge17" class="edge">
<title>ProfileNavbarComponent&#45;&gt;AppModule</title>
<path fill="none" stroke="#000000" d="M1995,-122.2396C1995,-137.5706 1995,-157 1995,-157 1995,-157 2385.0192,-157 2385.0192,-157"/>
<polygon fill="#000000" stroke="#000000" points="2385.0193,-160.5001 2395.0192,-157 2385.0192,-153.5001 2385.0193,-160.5001"/>
</g>
<!-- ProfileUpdateComponent -->
<g id="node18" class="node">
<title>ProfileUpdateComponent</title>
<polygon fill="#ffffb3" stroke="#000000" points="1896.8585,-122 1737.1415,-122 1737.1415,-86 1896.8585,-86 1896.8585,-122"/>
<text text-anchor="middle" x="1817" y="-99.8" font-family="Times,serif" font-size="14.00" fill="#000000">ProfileUpdateComponent</text>
</g>
<!-- ProfileUpdateComponent&#45;&gt;AppModule -->
<g id="edge18" class="edge">
<title>ProfileUpdateComponent&#45;&gt;AppModule</title>
<path fill="none" stroke="#000000" d="M1817,-122.0091C1817,-138.0494 1817,-159 1817,-159 1817,-159 2384.8723,-159 2384.8723,-159"/>
<polygon fill="#000000" stroke="#000000" points="2384.8724,-162.5001 2394.8723,-159 2384.8723,-155.5001 2384.8724,-162.5001"/>
</g>
<!-- QuizSessionComponent -->
<g id="node19" class="node">
<title>QuizSessionComponent</title>
<polygon fill="#ffffb3" stroke="#000000" points="1718.8215,-122 1567.1785,-122 1567.1785,-86 1718.8215,-86 1718.8215,-122"/>
<text text-anchor="middle" x="1643" y="-99.8" font-family="Times,serif" font-size="14.00" fill="#000000">QuizSessionComponent</text>
</g>
<!-- QuizSessionComponent&#45;&gt;AppModule -->
<g id="edge19" class="edge">
<title>QuizSessionComponent&#45;&gt;AppModule</title>
<path fill="none" stroke="#000000" d="M1643,-122.0336C1643,-139.0597 1643,-162 1643,-162 1643,-162 2385.1508,-162 2385.1508,-162"/>
<polygon fill="#000000" stroke="#000000" points="2385.1508,-165.5001 2395.1508,-162 2385.1507,-158.5001 2385.1508,-165.5001"/>
</g>
<!-- QuizzesComponent -->
<g id="node20" class="node">
<title>QuizzesComponent</title>
<polygon fill="#ffffb3" stroke="#000000" points="1549.4187,-122 1422.5813,-122 1422.5813,-86 1549.4187,-86 1549.4187,-122"/>
<text text-anchor="middle" x="1486" y="-99.8" font-family="Times,serif" font-size="14.00" fill="#000000">QuizzesComponent</text>
</g>
<!-- QuizzesComponent&#45;&gt;AppModule -->
<g id="edge20" class="edge">
<title>QuizzesComponent&#45;&gt;AppModule</title>
<path fill="none" stroke="#000000" d="M1486,-122.002C1486,-139.6754 1486,-164 1486,-164 1486,-164 2385.2179,-164 2385.2179,-164"/>
<polygon fill="#000000" stroke="#000000" points="2385.218,-167.5001 2395.2179,-164 2385.2179,-160.5001 2385.218,-167.5001"/>
</g>
<!-- SavedQuizzesComponent -->
<g id="node21" class="node">
<title>SavedQuizzesComponent</title>
<polygon fill="#ffffb3" stroke="#000000" points="1404.1302,-122 1243.8698,-122 1243.8698,-86 1404.1302,-86 1404.1302,-122"/>
<text text-anchor="middle" x="1324" y="-99.8" font-family="Times,serif" font-size="14.00" fill="#000000">SavedQuizzesComponent</text>
</g>
<!-- SavedQuizzesComponent&#45;&gt;AppModule -->
<g id="edge21" class="edge">
<title>SavedQuizzesComponent&#45;&gt;AppModule</title>
<path fill="none" stroke="#000000" d="M1324,-122.2222C1324,-140.8285 1324,-167 1324,-167 1324,-167 2385.0649,-167 2385.0649,-167"/>
<polygon fill="#000000" stroke="#000000" points="2385.0649,-170.5001 2395.0649,-167 2385.0649,-163.5001 2385.0649,-170.5001"/>
</g>
<!-- SidebarAdminComponent -->
<g id="node22" class="node">
<title>SidebarAdminComponent</title>
<polygon fill="#ffffb3" stroke="#000000" points="1225.4832,-122 1062.5168,-122 1062.5168,-86 1225.4832,-86 1225.4832,-122"/>
<text text-anchor="middle" x="1144" y="-99.8" font-family="Times,serif" font-size="14.00" fill="#000000">SidebarAdminComponent</text>
</g>
<!-- SidebarAdminComponent&#45;&gt;AppModule -->
<g id="edge22" class="edge">
<title>SidebarAdminComponent&#45;&gt;AppModule</title>
<path fill="none" stroke="#000000" d="M1144,-122.1061C1144,-141.3391 1144,-169 1144,-169 1144,-169 2385.0801,-169 2385.0801,-169"/>
<polygon fill="#000000" stroke="#000000" points="2385.0801,-172.5001 2395.0801,-169 2385.08,-165.5001 2385.0801,-172.5001"/>
</g>
<!-- SidebarComponent -->
<g id="node23" class="node">
<title>SidebarComponent</title>
<polygon fill="#ffffb3" stroke="#000000" points="1044.0954,-122 919.9046,-122 919.9046,-86 1044.0954,-86 1044.0954,-122"/>
<text text-anchor="middle" x="982" y="-99.8" font-family="Times,serif" font-size="14.00" fill="#000000">SidebarComponent</text>
</g>
<!-- SidebarComponent&#45;&gt;AppModule -->
<g id="edge23" class="edge">
<title>SidebarComponent&#45;&gt;AppModule</title>
<path fill="none" stroke="#000000" d="M982,-122.2228C982,-142.3652 982,-172 982,-172 982,-172 2385.0238,-172 2385.0238,-172"/>
<polygon fill="#000000" stroke="#000000" points="2385.0239,-175.5001 2395.0238,-172 2385.0238,-168.5001 2385.0239,-175.5001"/>
</g>
<!-- SidebarProfileComponent -->
<g id="node24" class="node">
<title>SidebarProfileComponent</title>
<polygon fill="#ffffb3" stroke="#000000" points="902.1951,-122 739.8049,-122 739.8049,-86 902.1951,-86 902.1951,-122"/>
<text text-anchor="middle" x="821" y="-99.8" font-family="Times,serif" font-size="14.00" fill="#000000">SidebarProfileComponent</text>
</g>
<!-- SidebarProfileComponent&#45;&gt;AppModule -->
<g id="edge24" class="edge">
<title>SidebarProfileComponent&#45;&gt;AppModule</title>
<path fill="none" stroke="#000000" d="M821,-122.2843C821,-143.3211 821,-175 821,-175 821,-175 2385.0191,-175 2385.0191,-175"/>
<polygon fill="#000000" stroke="#000000" points="2385.0191,-178.5001 2395.0191,-175 2385.0191,-171.5001 2385.0191,-178.5001"/>
</g>
<!-- TakeAQuizAddDialogComponent -->
<g id="node25" class="node">
<title>TakeAQuizAddDialogComponent</title>
<polygon fill="#ffffb3" stroke="#000000" points="721.3417,-122 512.6583,-122 512.6583,-86 721.3417,-86 721.3417,-122"/>
<text text-anchor="middle" x="617" y="-99.8" font-family="Times,serif" font-size="14.00" fill="#000000">TakeAQuizAddDialogComponent</text>
</g>
<!-- TakeAQuizAddDialogComponent&#45;&gt;AppModule -->
<g id="edge25" class="edge">
<title>TakeAQuizAddDialogComponent&#45;&gt;AppModule</title>
<path fill="none" stroke="#000000" d="M617,-122.0449C617,-143.6623 617,-177 617,-177 617,-177 2385.1301,-177 2385.1301,-177"/>
<polygon fill="#000000" stroke="#000000" points="2385.1302,-180.5001 2395.1301,-177 2385.1301,-173.5001 2385.1302,-180.5001"/>
</g>
<!-- TakeAQuizComponent -->
<g id="node26" class="node">
<title>TakeAQuizComponent</title>
<polygon fill="#ffffb3" stroke="#000000" points="494.1331,-122 347.8669,-122 347.8669,-86 494.1331,-86 494.1331,-122"/>
<text text-anchor="middle" x="421" y="-99.8" font-family="Times,serif" font-size="14.00" fill="#000000">TakeAQuizComponent</text>
</g>
<!-- TakeAQuizComponent&#45;&gt;AppModule -->
<g id="edge26" class="edge">
<title>TakeAQuizComponent&#45;&gt;AppModule</title>
<path fill="none" stroke="#000000" d="M421,-122.0109C421,-144.4852 421,-180 421,-180 421,-180 2384.893,-180 2384.893,-180"/>
<polygon fill="#000000" stroke="#000000" points="2384.893,-183.5001 2394.893,-180 2384.8929,-176.5001 2384.893,-183.5001"/>
</g>
<!-- AppComponent  -->
<g id="node29" class="node">
<title>AppComponent </title>
<polygon fill="#80b1d3" stroke="#000000" points="2491.439,-252 2382.561,-252 2382.561,-216 2491.439,-216 2491.439,-252"/>
<text text-anchor="middle" x="2437" y="-229.8" font-family="Times,serif" font-size="14.00" fill="#000000">AppComponent </text>
</g>
<!-- AppModule&#45;&gt;AppComponent  -->
<g id="edge28" class="edge">
<title>AppModule&#45;&gt;AppComponent </title>
<path fill="none" stroke="#000000" stroke-dasharray="1,5" d="M2437,-187.1061C2437,-187.1061 2437,-205.991 2437,-205.991"/>
<polygon fill="#000000" stroke="#000000" points="2433.5001,-205.9909 2437,-215.991 2440.5001,-205.991 2433.5001,-205.9909"/>
</g>
<!-- AppRoutingModule -->
<g id="node28" class="node">
<title>AppRoutingModule</title>
<polygon fill="#8dd3c7" stroke="#000000" points="324.2744,-122 321.2744,-126 300.2744,-126 297.2744,-122 195.7256,-122 195.7256,-86 324.2744,-86 324.2744,-122"/>
<text text-anchor="middle" x="260" y="-99.8" font-family="Times,serif" font-size="14.00" fill="#000000">AppRoutingModule</text>
</g>
<!-- AppRoutingModule&#45;&gt;AppModule -->
<g id="edge27" class="edge">
<title>AppRoutingModule&#45;&gt;AppModule</title>
<path fill="none" stroke="#000000" d="M260,-122.0908C260,-145.1328 260,-182 260,-182 260,-182 2384.9739,-182 2384.9739,-182"/>
<polygon fill="#000000" stroke="#000000" points="2384.9739,-185.5001 2394.9739,-182 2384.9739,-178.5001 2384.9739,-185.5001"/>
</g>
<!-- GatewayService -->
<g id="node30" class="node">
<title>GatewayService</title>
<ellipse fill="#fdb462" stroke="#000000" cx="98" cy="-104" rx="74.1143" ry="18"/>
<text text-anchor="middle" x="98" y="-99.8" font-family="Times,serif" font-size="14.00" fill="#000000">GatewayService</text>
</g>
<!-- GatewayService&#45;&gt;AppModule -->
<g id="edge29" class="edge">
<title>GatewayService&#45;&gt;AppModule</title>
<path fill="none" stroke="#000000" d="M98,-122.3802C98,-146.2785 98,-185 98,-185 98,-185 2385.1596,-185 2385.1596,-185"/>
<polygon fill="#000000" stroke="#000000" points="2385.1597,-188.5001 2395.1596,-185 2385.1596,-181.5001 2385.1597,-188.5001"/>
</g>
</g>
</svg>
